
        <svg xmlns="http://www.w3.org/2000/svg" xmlns:xlink="http://www.w3.org/1999/xlink" version="1.1" width="3200" height="2171.800003051758" viewBox="0 0 3200 2171.800003051758">
			
			<g transform="scale(10) translate(10, 10)">
				<defs id="SvgjsDefs1237"/><g id="SvgjsG1238" featureKey="symbolFeature-0" transform="matrix(1.1145900476714463,0,0,1.1145900476714463,94.78817414789204,-19.332563611532986)" fill="#000"><circle xmlns="http://www.w3.org/2000/svg" cx="76.495" cy="31.313" r="13.968"/><path xmlns="http://www.w3.org/2000/svg" d="M77.009,51.509c-0.179,0-0.342,0-0.521,0.014v-0.014c-15.242,0-20.705-6.59-30.613-10.509c3.661-3.5,3.974-6.715,3.974-9.68  c0-7.717-6.258-13.975-13.976-13.975c-7.717,0-13.959,6.258-13.959,13.975c0,3.009,0.961,6.805,4.461,9.805  c-9.968,3.8-19.405,10.726-21.699,21.349v1.624c0,3.56,2.89,6.451,6.451,6.451c1.922,0,3.65-0.85,4.842-2.19v13.796h2.979V62.122  c0.03-0.403,1.103-9.997,16.925-9.997c15.718,0,15.912,10.25,15.912,10.25v19.779h42.61V63.248  C94.396,63.248,94.531,51.509,77.009,51.509z M44.321,38.323c-1.997,2.428-5.05,3.978-8.448,3.978c-3.352,0-6.376-1.52-8.373-3.904  c-1.625-1.922-2.607-4.38-2.607-7.077c0-6.064,4.931-10.995,10.979-10.995c6.064,0,10.996,4.931,10.996,10.995  C46.87,33.973,45.916,36.416,44.321,38.323z"/></g><g id="SvgjsG1239" featureKey="nameFeature-0" transform="matrix(2.6633522871589244,0,0,2.6633522871589244,-3.196019696625903,59.29402700496818)" fill="#000"><path d="M15.36 14.32 c-6.76 0 -12.04 5.08 -12.04 11.96 s5.28 12.04 12.04 12.04 c4.8 0 8.04 -2.2 10.2 -5.8 l1.64 1.08 c-2.44 4.12 -6.28 6.72 -11.84 6.72 c-7.8 0 -14.16 -5.92 -14.16 -14.04 s6.36 -14 14.16 -14 c5.56 0 9.52 2.64 11.92 6.76 l-1.72 1.12 c-2.16 -3.64 -5.52 -5.84 -10.2 -5.84 z M38.56 19.68 l0 2.16 c-3.84 0 -6.68 2.92 -6.68 7.28 l0 10.88 l-1.96 0 l0 -20 l1.96 0 l0 3.72 c0.76 -1.52 2.92 -4.04 6.68 -4.04 z M49.28 19.68 c5.8 0 10.28 4.48 10.28 10.28 c0 5.84 -4.48 10.32 -10.28 10.32 c-5.84 0 -10.32 -4.48 -10.32 -10.32 c0 -5.8 4.48 -10.28 10.32 -10.28 z M49.28 21.56 c-4.8 0 -8.36 3.68 -8.36 8.44 c0 4.72 3.56 8.4 8.36 8.4 c4.76 0 8.32 -3.68 8.32 -8.4 c0 -4.76 -3.56 -8.44 -8.32 -8.44 z M71.88 19.68 c5.8 0 10.28 4.48 10.28 10.28 c0 5.84 -4.48 10.32 -10.28 10.32 c-5.84 0 -10.32 -4.48 -10.32 -10.32 c0 -5.8 4.48 -10.28 10.32 -10.28 z M71.88 21.56 c-4.8 0 -8.36 3.68 -8.36 8.44 c0 4.72 3.56 8.4 8.36 8.4 c4.76 0 8.32 -3.68 8.32 -8.4 c0 -4.76 -3.56 -8.44 -8.32 -8.44 z M86.72 20 l0 2.92 c0.96 -1.64 3 -3.24 6.28 -3.24 c3.08 0 5.44 1.52 6.56 4.04 c1.08 -2.04 3.28 -4.04 7 -4.04 c4.4 0 7.28 3.04 7.28 7.76 l0 12.56 l-1.96 0 l0 -12.4 c0 -3.8 -2.08 -6.04 -5.52 -6.04 c-3.6 0 -6.08 2.32 -6.08 6.28 l0 12.16 l-1.96 0 l0 -12.4 c0 -3.8 -2.08 -6.04 -5.52 -6.04 c-3.68 0 -6.08 2.44 -6.08 6.56 l0 11.88 l-1.96 0 l0 -20 l1.96 0 z"/></g><g id="SvgjsG1240" featureKey="sloganFeature-0" transform="matrix(1,0,0,1,37.799999952316284,177.09999990463257)" fill="#000"><path d="M1.2 16.6 l0 -8.22 c0 -1.88 1.52 -3.4 3.4 -3.4 l6.6 0 l0 1.46 c0 0.14 -0.12 0.26 -0.26 0.26 l-6.34 0 c-0.84 0 -1.52 0.68 -1.52 1.52 l0 8.54 c0 0.84 0.68 1.52 1.52 1.52 l6.34 0 c0.14 0 0.26 0.12 0.26 0.26 l0 1.46 l-6.6 0 c-1.88 0 -3.4 -1.54 -3.4 -3.4 z M21.28 20.08 l-4.52 0 c-1.88 0 -3.4 -1.52 -3.4 -3.4 l0 -8.38 c0 -1.88 1.52 -3.4 3.4 -3.4 l4.52 0 c1.86 0 3.4 1.52 3.4 3.4 l0 8.38 c0 1.88 -1.54 3.4 -3.4 3.4 z M16.759999999999998 6.619999999999999 c-0.84 0 -1.52 0.68 -1.52 1.52 l0 8.7 c0 0.84 0.68 1.52 1.52 1.52 l4.52 0 c0.84 0 1.52 -0.68 1.52 -1.52 l0 -8.7 c0 -0.84 -0.68 -1.52 -1.52 -1.52 l-4.52 0 z M35.400000000000006 13.7 l1.82 3.58 c-0.2 -1.56 -0.2 -2.82 -0.3 -4.24 l0 -7.8 c0 -0.14 0.12 -0.26 0.26 -0.26 l1.62 0 l0 15.02 l-1.74 0 c-0.14 0 -0.32 -0.12 -0.38 -0.24 l-6.84 -12.74 c-0.1 -0.18 -0.34 -0.32 -0.54 -0.32 l-0.34 0 l0 13.04 c0 0.14 -0.12 0.26 -0.26 0.26 l-1.62 0 l0 -14.76 c0 -0.14 0.12 -0.26 0.26 -0.26 l2.28 0 c0.64 0 1.4 0.46 1.7 1.02 z M49.540000000000006 13.7 l1.82 3.58 c-0.2 -1.56 -0.2 -2.82 -0.3 -4.24 l0 -7.8 c0 -0.14 0.12 -0.26 0.26 -0.26 l1.62 0 l0 15.02 l-1.74 0 c-0.14 0 -0.32 -0.12 -0.38 -0.24 l-6.84 -12.74 c-0.1 -0.18 -0.34 -0.32 -0.54 -0.32 l-0.34 0 l0 13.04 c0 0.14 -0.12 0.26 -0.26 0.26 l-1.62 0 l0 -14.76 c0 -0.14 0.12 -0.26 0.26 -0.26 l2.28 0 c0.64 0 1.4 0.46 1.7 1.02 z M58.760000000000005 6.699999999999999 c-0.84 0 -1.52 0.68 -1.52 1.52 l0 3.8 c0.2 -0.24 0.56 -0.4 0.98 -0.4 l6.58 0 l0 1.46 c0 0.14 -0.12 0.26 -0.26 0.26 l-7.3 0 l0 3.42 c0 0.84 0.68 1.52 1.52 1.52 l6.48 0 c0.14 0 0.26 0.12 0.26 0.26 l0 1.46 l-6.74 0 c-1.88 0 -3.4 -1.52 -3.4 -3.4 l0 -8.22 c0 -1.88 1.52 -3.4 3.4 -3.4 l6.74 0 l0 1.46 c0 0.14 -0.12 0.26 -0.26 0.26 l-6.48 0 z M67.34 16.6 l0 -8.22 c0 -1.88 1.52 -3.4 3.4 -3.4 l6.6 0 l0 1.46 c0 0.14 -0.12 0.26 -0.26 0.26 l-6.34 0 c-0.84 0 -1.52 0.68 -1.52 1.52 l0 8.54 c0 0.84 0.68 1.52 1.52 1.52 l6.34 0 c0.14 0 0.26 0.12 0.26 0.26 l0 1.46 l-6.6 0 c-1.88 0 -3.4 -1.54 -3.4 -3.4 z M78.94 4.98 l10.64 0 l0 1.46 c0 0.14 -0.12 0.26 -0.26 0.26 l-4.28 0 l0 13.04 c0 0.14 -0.1 0.26 -0.26 0.26 l-1.62 0 l0 -13.3 l-4.48 0 l0 -1.46 c0 -0.14 0.12 -0.26 0.26 -0.26 z M98.69999999999999 16.6 l0 -8.22 c0 -1.88 1.52 -3.4 3.4 -3.4 l6.6 0 l0 1.46 c0 0.14 -0.12 0.26 -0.26 0.26 l-6.34 0 c-0.84 0 -1.52 0.68 -1.52 1.52 l0 8.54 c0 0.84 0.68 1.52 1.52 1.52 l6.34 0 c0.14 0 0.26 0.12 0.26 0.26 l0 1.46 l-6.6 0 c-1.88 0 -3.4 -1.54 -3.4 -3.4 z M120.19999999999997 4.98 l1.62 0 l0 15.02 l-1.62 0 c-0.14 0 -0.26 -0.12 -0.26 -0.26 l0 -6.4 l-7.18 0 l0 6.4 c0 0.14 -0.12 0.26 -0.26 0.26 l-1.62 0 l0 -15.02 l1.62 0 c0.14 0 0.26 0.12 0.26 0.26 l0 6.38 l7.18 0 l0 -6.38 c0 -0.14 0.12 -0.26 0.26 -0.26 z M132.37999999999997 5.119999999999999 l5.24 14.88 l-1.64 0 c-0.18 0 -0.32 -0.12 -0.36 -0.26 l-1.34 -3.86 l-7.64 0 l-1.34 3.86 c-0.04 0.14 -0.2 0.26 -0.36 0.26 l-1.64 0 l4.88 -13.9 c0.24 -0.66 0.86 -1.12 1.58 -1.12 l2.38 0 c0.1 0 0.2 0.06 0.24 0.14 z M127.23999999999998 14.16 l6.44 0 l-2.6 -7.46 l-0.98 0 c-0.16 0 -0.3 0.1 -0.36 0.26 z M137.04 4.98 l10.64 0 l0 1.46 c0 0.14 -0.12 0.26 -0.26 0.26 l-4.28 0 l0 13.04 c0 0.14 -0.1 0.26 -0.26 0.26 l-1.62 0 l0 -13.3 l-4.48 0 l0 -1.46 c0 -0.14 0.12 -0.26 0.26 -0.26 z M156.79999999999998 16.6 l0 -8.22 c0 -1.88 1.52 -3.4 3.4 -3.4 l6.6 0 l0 1.46 c0 0.14 -0.12 0.26 -0.26 0.26 l-6.34 0 c-0.84 0 -1.52 0.68 -1.52 1.52 l0 8.54 c0 0.84 0.68 1.52 1.52 1.52 l6.34 0 c0.14 0 0.26 0.12 0.26 0.26 l0 1.46 l-6.6 0 c-1.88 0 -3.4 -1.54 -3.4 -3.4 z M170.9 12.8 l-0.04 0 l0 6.94 c0 0.14 -0.12 0.26 -0.26 0.26 l-1.62 0 l0 -13.86 c0 -0.64 0.52 -1.16 1.16 -1.16 l6.28 0 c1.88 0 3.4 1.18 3.4 3.22 l0 1.94 c0 1.76 -1.26 2.72 -2.72 3.1 l3.2 6.76 l-1.74 0 c-0.14 0 -0.3 -0.12 -0.36 -0.24 l-3.04 -6.42 l-2.56 0 l-0.58 0 c-0.56 0 -0.98 -0.16 -1.12 -0.54 z M171.24 11.62 l5.18 0 c0.84 0 1.52 -0.68 1.52 -1.52 l0 -1.88 c0 -0.84 -0.68 -1.52 -1.52 -1.52 l-5.18 0 c-0.22 0 -0.38 0.18 -0.38 0.38 l0 4.16 c0 0.22 0.18 0.38 0.38 0.38 z M189.79999999999998 20.08 l-4.52 0 c-1.88 0 -3.4 -1.52 -3.4 -3.4 l0 -8.38 c0 -1.88 1.52 -3.4 3.4 -3.4 l4.52 0 c1.86 0 3.4 1.52 3.4 3.4 l0 8.38 c0 1.88 -1.54 3.4 -3.4 3.4 z M185.28 6.619999999999999 c-0.84 0 -1.52 0.68 -1.52 1.52 l0 8.7 c0 0.84 0.68 1.52 1.52 1.52 l4.52 0 c0.84 0 1.52 -0.68 1.52 -1.52 l0 -8.7 c0 -0.84 -0.68 -1.52 -1.52 -1.52 l-4.52 0 z M203.49999999999997 20.08 l-4.52 0 c-1.88 0 -3.4 -1.52 -3.4 -3.4 l0 -8.38 c0 -1.88 1.52 -3.4 3.4 -3.4 l4.52 0 c1.86 0 3.4 1.52 3.4 3.4 l0 8.38 c0 1.88 -1.54 3.4 -3.4 3.4 z M198.98 6.619999999999999 c-0.84 0 -1.52 0.68 -1.52 1.52 l0 8.7 c0 0.84 0.68 1.52 1.52 1.52 l4.52 0 c0.84 0 1.52 -0.68 1.52 -1.52 l0 -8.7 c0 -0.84 -0.68 -1.52 -1.52 -1.52 l-4.52 0 z M210.95999999999998 5 c0.2 0 0.44 0.14 0.54 0.32 l4.98 9.12 l5 -9.12 c0.1 -0.18 0.34 -0.32 0.54 -0.32 l1.4 0 c0.14 0 0.26 0.1 0.26 0.26 l0 14.72 l-1.62 0 c-0.14 0 -0.26 -0.12 -0.26 -0.26 l0 -11.68 l-4.18 7.94 c-0.08 0.14 -0.24 0.24 -0.4 0.24 l-1.46 0 c-0.16 0 -0.32 -0.1 -0.4 -0.24 l-4.18 -7.94 l0 11.68 c0 0.14 -0.12 0.26 -0.26 0.26 l-1.62 0 l0 -14.72 c0 -0.16 0.12 -0.26 0.26 -0.26 l1.4 0 z"/></g>
			</g>
		</svg>
	